#!OML:ASF I:\golf\golf\golf 2\Subject 1\2002-09-07\Subject1.ASF
:FULLY-SPECIFIED
:DEGREES
369
root -6.88664 17.9548 0.675969 -179.246 43.4811 -184.037
lowerback -3.57538 5.57976 10.0062
upperback 0.273564 8.77295 14.4346
thorax 1.29896 5.20605 10.3232
lowerneck -4.08983 -18.9196 -4.9741
upperneck 28.5841 -21.8494 -7.5974
head 9.39406 -10.4539 -3.61128
rclavicle 8.74653e-015 -1.7175e-013
rhumerus 30.2564 47.5617 -81.8219
rradius 27.9555
rwrist -15.7236
rhand 5.42818 -10.2354
rfingers 7.12502
rthumb 30.7783 -37.6789
lclavicle 8.74653e-015 -1.7175e-013
lhumerus 11.356 -21.5667 96.9481
lradius 29.7925
lwrist 65.3241
lhand -19.3039 48.0987
lfingers 7.12502
lthumb -172.988 617.963
rfemur 2.47733 -3.36369 1.9289
rtibia 30.6426
rfoot -4.88955 -26.3896
rtoes 10.4429
lfemur -17.1112 -4.67175 -21.6303
ltibia 18.7063
lfoot -4.69023 -28.1601
ltoes 1.13736
370
root -6.89062 17.9405 0.61637 -178.865 42.5003 -183.294
lowerback -2.77667 6.1841 11.131
upperback -0.192472 9.91457 14.4938
thorax 0.375381 5.80904 9.63783
lowerneck -3.85927 -19.3816 -4.6795
upperneck 27.9229 -22.6652 -7.26798
head 9.10812 -10.7811 -3.53257
rclavicle -3.02153e-014 1.24042e-013
rhumerus 33.107 47.2455 -81.3265
rradius 29.325
rwrist -13.0551
rhand 5.35869 -8.30177
rfingers 7.12502
rthumb 30.712 -35.7577
lclavicle -3.02153e-014 1.24042e-013
lhumerus 12.9173 -18.6829 96.0415
lradius 30.3155
lwrist 61.3676
lhand -16.652 46.2337
lfingers 7.12502
lthumb -170.429 615.996
rfemur 3.51842 -3.4954 2.42723
rtibia 29.88
rfoot -3.92265 -26.522
rtoes 8.15621
lfemur -17.5964 -5.21853 -21.2984
ltibia 20.0032
lfoot -5.08229 -28.3929
ltoes 2.18741
371
root -6.89407 17.9302 0.569345 -178.1 41.4176 -182.263
lowerback -2.11466 6.74364 12.0915
upperback -0.726618 11.0677 14.6805
thorax -0.575582 6.42354 9.19133
lowerneck -3.8744 -19.8199 -4.30239
upperneck 27.4381 -23.403 -7.06746
head 8.90326 -11.0735 -3.53074
rclavicle 6.36111e-014 -4.45278e-014
rhumerus 35.5905 46.656 -81.1169
rradius 30.5091
rwrist -8.59935
rhand 4.96704 -5.3878
rfingers 7.12502
rthumb 30.3385 -32.9132
lclavicle 6.36111e-014 -4.45278e-014
lhumerus 14.4551 -17.5843 94.6603
lradius 32.3574
lwrist 63.2409
lhand -20.0278 42.0847
lfingers 7.12502
lthumb -173.687 611.971
rfemur 4.31057 -3.55291 3.34716
rtibia 29.2126
rfoot -3.74426 -26.8558
rtoes 8.00902
lfemur -18.3641 -5.43334 -20.6869
ltibia 21.2921
lfoot -5.22445 -29.049
ltoes 3.64666
372
root -6.89744 17.9186 0.528111 -177.314 40.1808 -181.357
lowerback -1.58112 7.29921 12.8481
upperback -1.25894 12.2128 14.8087
thorax -1.4582 7.02304 8.79705
lowerneck -4.23747 -20.2078 -3.68336
upperneck 26.9573 -24.1015 -6.91056
head 8.72103 -11.3423 -3.59774
rclavicle -1.66979e-014 -4.13472e-014
rhumerus 38.2633 46.1827 -80.5742
rradius 31.5915
rwrist -3.75115
rhand 5.19504 -1.64612
rfingers 7.12502
rthumb 30.556 -29.1313
lclavicle -1.66979e-014 -4.13472e-014
lhumerus 16.2653 -16.5099 93.287
lradius 34.3376
lwrist 63.9367
lhand -21.8957 38.9117
lfingers 7.12502
lthumb -175.491 608.844
rfemur 4.92301 -3.65818 4.29772
rtibia 28.6857
rfoot -4.02012 -27.3689
rtoes 9.02884
lfemur -19.2547 -5.63618 -20.1266
ltibia 22.4917
lfoot -5.38808 -29.8261
ltoes 4.6263
373
root -6.90018 17.9021 0.483797 -176.744 38.9089 -180.898
lowerback -1.37215 7.81001 13.0652
upperback -1.67037 13.2233 14.9775
thorax -2.12209 7.56899 8.78471
lowerneck -4.57348 -20.4736 -3.18737
upperneck 26.142 -24.6784 -6.59342
head 8.46082 -11.5764 -3.57097
rclavicle -1.52667e-013 8.26944e-014
rhumerus 41.3326 46.2327 -79.3656
rradius 32.7546
rwrist -0.288712
rhand 4.31523 1.35872
rfingers 7.12502
rthumb 29.7166 -26.2795
lclavicle -1.52667e-013 8.26944e-014
lhumerus 18.1433 -14.8307 92.3346
lradius 36.1114
lwrist 63.4722
lhand -21.6279 34.3426
lfingers 7.12502
lthumb -175.232 604.269
rfemur 5.37251 -3.80911 4.90539
rtibia 28.2927
rfoot -4.28844 -27.9125
rtoes 9.7764
lfemur -20.1618 -6.04329 -19.8988
ltibia 23.563
lfoot -5.64062 -30.3495
ltoes 5.16465
374
root -6.90134 17.8795 0.436085 -176.322 37.6433 -180.701
lowerback -1.38022 8.27225 12.5489
upperback -2.02944 14.2142 15.4088
thorax -2.85201 8.16596 9.46179
lowerneck -4.57614 -20.7356 -3.29147
upperneck 25.0583 -25.2167 -6.04923
head 8.17406 -11.832 -3.37085
rclavicle 9.85972e-014 6.04305e-014
rhumerus 45.0558 46.9633 -76.7261
rradius 33.9395
rwrist 2.02879
rhand 2.44616 3.13432
rfingers 7.12502
rthumb 27.9312 -24.8082
lclavicle 9.85972e-014 6.04305e-014
lhumerus 19.7697 -12.8784 92.0906
lradius 37.9704
lwrist 62.3706
lhand -22.2179 31.4016
lfingers 7.12502
lthumb -175.802 601.34
rfemur 5.76786 -4.01791 5.2781
rtibia 27.9768
rfoot -4.58634 -28.4182
rtoes 10.5589
lfemur -21.0581 -6.50087 -19.8926
ltibia 24.5369
lfoot -5.4913 -30.8087
ltoes 6.53451
